subject_02
version=1
nRows=408
nColumns=3
inDegrees=yes
endheader
time	r_shoulder_elev	r_elbow_flex
104.0400	20.436163	44.220480
104.0500	20.436163	44.744261
104.0600	20.436163	45.350075
104.0700	20.436163	45.953801
104.0800	20.436163	46.489727
104.0900	20.436163	46.928965
104.1000	20.436163	47.285478
104.1100	20.436163	47.608528
104.1200	20.436163	47.964208
104.1300	20.436163	48.411857
104.1400	20.436163	48.982467
104.1500	20.436163	49.665557
104.1600	20.436163	50.408483
104.1700	20.436163	51.128588
104.1800	20.436163	51.734968
104.1900	20.436163	52.153883
104.2000	20.436163	52.350822
104.2100	20.436163	52.343093
104.2200	20.436163	52.199349
104.2300	20.436163	52.025912
104.2400	20.436163	51.943267
104.2500	20.436163	52.058599
104.2600	20.436163	52.441200
104.2700	20.436163	53.106739
104.2800	20.436163	54.014025
104.2900	20.436163	55.074688
104.3000	20.436163	56.173034
104.3100	20.436163	57.190968
104.3200	20.436163	58.031971
104.3300	20.436163	58.638744
104.3400	20.436163	59.001043
104.3500	20.436163	59.152895
104.3600	20.436163	59.160986
104.3700	20.436163	59.107936
104.3800	20.436163	59.074905
104.3900	20.436163	59.127559
104.4000	20.436163	59.307924
104.4100	20.436163	59.632787
104.4200	20.436163	60.097461
104.4300	20.436163	60.682553
104.4400	20.436163	61.361056
104.4500	20.436163	62.103671
104.4600	20.436163	62.881367
104.4700	20.436163	63.665528
104.4800	20.436163	64.426994
104.4900	20.436163	65.135688
104.5000	20.436163	65.762177
104.5100	20.436163	66.281595
104.5200	20.436163	66.679213
104.5300	20.436163	66.956027
104.5400	20.436163	67.132266
104.5500	20.436163	67.247086
104.5600	20.436163	67.353635
104.5700	20.436163	67.510003
104.5800	20.436163	67.767899
104.5900	20.436163	68.161715
104.6000	20.436163	68.700798
104.6100	20.436163	69.367054
104.6200	20.436163	70.118688
104.6300	20.436163	70.899324
104.6400	20.436163	71.650298
104.6500	20.436163	72.323134
104.6600	20.436163	72.889132
104.6700	20.436163	73.343857
104.6800	20.436163	73.705686
104.6900	20.436163	74.009129
104.7000	20.436163	74.295003
104.7100	20.436163	74.600219
104.7200	20.436163	74.949839
104.7300	20.436163	75.353257
104.7400	20.436163	75.805031
104.7500	20.436163	76.289557
104.7600	20.436163	76.787730
104.7700	20.436163	77.283341
104.7800	20.436163	77.767279
104.7900	20.436163	78.238496
104.8000	20.436163	78.701838
104.8100	20.436163	79.163923
104.8200	20.436163	79.628834
104.8300	20.436163	80.095364
104.8400	20.436163	80.556924
104.8500	20.436163	81.004185
104.8600	20.436163	81.429487
104.8700	20.436163	81.831292
104.8800	20.436163	82.216842
104.8900	20.436163	82.601691
104.9000	20.436163	83.005814
104.9100	20.436163	83.447206
104.9200	20.436163	83.934907
104.9300	20.436163	84.463789
104.9400	20.436163	85.013168
104.9500	20.436163	85.550251
104.9600	20.436163	86.037999
104.9700	20.436163	86.445519
104.9800	20.436163	86.758123
104.9900	20.436163	86.983974
105.0000	20.436163	87.154968
105.0100	20.436163	87.321005
105.0200	20.436163	87.538611
105.0300	20.436163	87.856651
105.0400	20.436163	88.302841
105.0500	20.436163	88.874851
105.0600	20.436163	89.538729
105.0700	20.436163	90.235530
105.0800	20.436163	90.894805
105.0900	20.436163	91.451690
105.1000	20.436163	91.863225
105.1100	20.436163	92.119568
105.1200	20.436163	92.247017
105.1300	20.436163	92.301865
105.1400	20.436163	92.356533
105.1500	20.436163	92.481506
105.1600	20.436163	92.727750
105.1700	20.436163	93.114192
105.1800	20.436163	93.623513
105.1900	20.436163	94.207295
105.2000	20.436163	94.799071
105.2100	20.436163	95.331744
105.2200	20.436163	95.754746
105.2300	20.436163	96.046433
105.2400	20.436163	96.218601
105.2500	20.436163	96.312172
105.2600	20.436163	96.385501
105.2700	20.436163	96.498667
105.2800	20.436163	96.698076
105.2900	20.436163	97.005417
105.3000	20.436163	97.413664
105.3100	20.436163	97.890755
105.3200	20.436163	98.389429
105.3300	20.436163	98.860136
105.3400	20.436163	99.263274
105.3500	20.436163	99.577473
105.3600	20.436163	99.802074
105.3700	20.436163	99.953765
105.3800	20.436163	100.059105
105.3900	20.436163	100.145755
105.4000	20.436163	100.235364
105.4100	20.436163	100.340247
105.4200	20.436163	100.464478
105.4300	20.436163	100.608374
105.4400	20.436163	100.774102
105.4500	20.436163	100.969688
105.4600	20.436163	101.209292
105.4700	20.436163	101.508998
105.4800	20.436163	101.879123
105.4900	20.436163	102.315626
105.5000	20.436163	102.793956
105.5100	20.436163	103.268384
105.5200	20.436163	103.678430
105.5300	20.436163	103.961833
105.5400	20.436163	104.071263
105.5500	20.436163	103.990291
105.5600	20.436163	103.743694
105.5700	20.436163	103.398148
105.5800	20.436163	103.051690
105.5900	20.436163	102.813352
105.6000	20.436163	102.777365
105.6100	20.436163	102.998285
105.6200	20.436163	103.473827
105.6300	20.436163	104.140658
105.6400	20.436163	104.885396
105.6500	20.436163	105.569103
105.6600	20.436163	106.059877
105.6700	20.436163	106.265608
105.6800	20.436163	106.158457
105.6900	20.436163	105.784306
105.7000	20.436163	105.254012
105.7100	20.436163	104.717916
105.7200	20.436163	104.329457
105.7300	20.436163	104.206837
105.7400	20.436163	104.402476
105.7500	20.436163	104.888340
105.7600	20.436163	105.561319
105.7700	20.436163	106.267796
105.7800	20.436163	106.841563
105.7900	20.436163	107.145680
105.8000	20.436163	107.107667
105.8100	20.436163	106.738957
105.8200	20.436163	106.133447
105.8300	20.436163	105.445256
105.8400	20.436163	104.851135
105.8500	20.436163	104.506903
105.8600	20.436163	104.508861
105.8700	20.436163	104.869890
105.8800	20.436163	105.516179
105.8900	20.436163	106.305318
105.9000	20.436163	107.061039
105.9100	20.436163	107.615771
105.9200	20.436163	107.850310
105.9300	20.436163	107.720814
105.9400	20.436163	107.266768
105.9500	20.436163	106.598482
105.9600	20.436163	105.867942
105.9700	20.436163	105.230897
105.9800	20.436163	104.810023
105.9900	20.436163	104.668352
106.0000	20.436163	104.799103
106.0100	20.436163	105.133598
106.0200	20.436163	105.564114
106.0300	20.436163	105.974816
106.0400	20.436163	106.272126
106.0500	20.436163	106.406479
106.0600	20.436163	106.380182
106.0700	20.436163	106.240135
106.0800	20.436163	106.058420
106.0900	20.436163	105.906983
106.1000	20.436163	105.834053
106.1100	20.436163	105.849119
106.1200	20.436163	105.920651
106.1300	20.436163	105.986941
106.1400	20.436163	105.976680
106.1500	20.436163	105.833082
106.1600	20.436163	105.534431
106.1700	20.436163	105.104950
106.1800	20.436163	104.612620
106.1900	20.436163	104.154243
106.2000	20.436163	103.831593
106.2100	20.436163	103.724932
106.2200	20.436163	103.870962
106.2300	20.436163	104.251070
106.2400	20.436163	104.793042
106.2500	20.436163	105.385902
106.2600	20.436163	105.904168
106.2700	20.436163	106.235516
106.2800	20.436163	106.305118
106.2900	20.436163	106.090907
106.3000	20.436163	105.626681
106.3100	20.436163	104.992785
106.3200	20.436163	104.297247
106.3300	20.436163	103.652360
106.3400	20.436163	103.152378
106.3500	20.436163	102.857234
106.3600	20.436163	102.785252
106.3700	20.436163	102.915364
106.3800	20.436163	103.196957
106.3900	20.436163	103.563932
106.4000	20.436163	103.949017
106.4100	20.436163	104.295020
106.4200	20.436163	104.561104
106.4300	20.436163	104.723933
106.4400	20.436163	104.774982
106.4500	20.436163	104.716195
106.4600	20.436163	104.556126
106.4700	20.436163	104.307980
106.4800	20.436163	103.989789
106.4900	20.436163	103.625803
106.5000	20.436163	103.247732
106.5100	20.436163	102.893999
106.5200	20.436163	102.606046
106.5300	20.436163	102.421855
106.5400	20.436163	102.367972
106.5500	20.436163	102.452172
106.5600	20.436163	102.659104
106.5700	20.436163	102.950661
106.5800	20.436163	103.271688
106.5900	20.436163	103.560134
106.6000	20.436163	103.759457
106.6100	20.436163	103.830341
106.6200	20.436163	103.758790
106.6300	20.436163	103.558557
106.6400	20.436163	103.267253
106.6500	20.436163	102.937171
106.6600	20.436163	102.623153
106.6700	20.436163	102.370600
106.6800	20.436163	102.206539
106.6900	20.436163	102.135779
106.7000	20.436163	102.142728
106.7100	20.436163	102.197924
106.7200	20.436163	102.267136
106.7300	20.436163	102.320374
106.7400	20.436163	102.338387
106.7500	20.436163	102.315185
106.7600	20.436163	102.256395
106.7700	20.436163	102.174529
106.7800	20.436163	102.083058
106.7900	20.436163	101.991388
106.8000	20.436163	101.902331
106.8100	20.436163	101.812663
106.8200	20.436163	101.716255
106.8300	20.436163	101.608336
106.8400	20.436163	101.489070
106.8500	20.436163	101.364918
106.8600	20.436163	101.247057
106.8700	20.436163	101.147261
106.8800	20.436163	101.072628
106.8900	20.436163	101.021141
106.9000	20.436163	100.979893
106.9100	20.436163	100.927080
106.9200	20.436163	100.837640
106.9300	20.436163	100.691125
106.9400	20.436163	100.479470
106.9500	20.436163	100.212087
106.9600	20.436163	99.916246
106.9700	20.436163	99.632004
106.9800	20.436163	99.402542
106.9900	20.436163	99.262262
107.0000	20.436163	99.225934
107.0100	20.436163	99.282123
107.0200	20.436163	99.393236
107.0300	20.436163	99.502738
107.0400	20.436163	99.548146
107.0500	20.436163	99.476639
107.0600	20.436163	99.259219
107.0700	20.436163	98.899507
107.0800	20.436163	98.434518
107.0900	20.436163	97.926838
107.1000	20.436163	97.449913
107.1100	20.436163	97.070092
107.1200	20.436163	96.830045
107.1300	20.436163	96.737922
107.1400	20.436163	96.765184
107.1500	20.436163	96.853783
107.1600	20.436163	96.930870
107.1700	20.436163	96.927225
107.1800	20.436163	96.794593
107.1900	20.436163	96.517406
107.2000	20.436163	96.115914
107.2100	20.436163	95.640004
107.2200	20.436163	95.155541
107.2300	20.436163	94.726948
107.2400	20.436163	94.400722
107.2500	20.436163	94.194171
107.2600	20.436163	94.092162
107.2700	20.436163	94.052415
107.2800	20.436163	94.017583
107.2900	20.436163	93.930569
107.3000	20.436163	93.748881
107.3100	20.436163	93.454244
107.3200	20.436163	93.055253
107.3300	20.436163	92.582884
107.3400	20.436163	92.080670
107.3500	20.436163	91.592742
107.3600	20.436163	91.153235
107.3700	20.436163	90.779914
107.3800	20.436163	90.473300
107.3900	20.436163	90.220796
107.4000	20.436163	90.003766
107.4100	20.436163	89.804740
107.4200	20.436163	89.612098
107.4300	20.436163	89.420716
107.4400	20.436163	89.228648
107.4500	20.436163	89.031506
107.4600	20.436163	88.817210
107.4700	20.436163	88.563833
107.4800	20.436163	88.242282
107.4900	20.436163	87.823907
107.5000	20.436163	87.291162
107.5100	20.436163	86.648015
107.5200	20.436163	85.926259
107.5300	20.436163	85.184632
107.5400	20.436163	84.499481
107.5500	20.436163	83.948240
107.5600	20.436163	83.589384
107.5700	20.436163	83.444162
107.5800	20.436163	83.485565
107.5900	20.436163	83.638606
107.6000	20.436163	83.793245
107.6100	20.436163	83.827869
107.6200	20.436163	83.638145
107.6300	20.436163	83.164089
107.6400	20.436163	82.408069
107.6500	20.436163	81.438335
107.6600	20.436163	80.376118
107.6700	20.436163	79.368585
107.6800	20.436163	78.553800
107.6900	20.436163	78.026286
107.7000	20.436163	77.812085
107.7100	20.436163	77.860127
107.7200	20.436163	78.052793
107.7300	20.436163	78.233658
107.7400	20.436163	78.245892
107.7500	20.436163	77.971790
107.7600	20.436163	77.363364
107.7700	20.436163	76.455926
107.7800	20.436163	75.360814
107.7900	20.436163	74.238674
107.8000	20.436163	73.259763
107.8100	20.436163	72.561174
107.8200	20.436163	72.211798
107.8300	20.436163	72.194028
107.8400	20.436163	72.406983
107.8500	20.436163	72.690584
107.8600	20.436163	72.864523
107.8700	20.436163	72.772341
107.8800	20.436163	72.319573
107.8900	20.436163	71.496448
107.9000	20.436163	70.379635
107.9100	20.436163	69.112843
107.9200	20.436163	67.871455
107.9300	20.436163	66.820285
107.9400	20.436163	66.075112
107.9500	20.436163	65.677408
107.9600	20.436163	65.588082
107.9700	20.436163	65.701069
107.9800	20.436163	65.872495
107.9900	20.436163	65.957380
108.0000	20.436163	65.844214
108.0100	20.436163	65.478759
108.0200	20.436163	64.871626
108.0300	20.436163	64.088693
108.0400	20.436163	63.228015
108.0500	20.436163	62.390284
108.0600	20.436163	61.651243
108.0700	20.436163	61.043519
108.0800	20.436163	60.552344
108.0900	20.436163	60.125559
108.1000	20.436163	59.694282
108.1100	20.436163	59.197682
